<svg id="visual" viewBox="0 0 900 600" width="900" height="600" xmlns="http://www.w3.org/2000/svg" xmlns:xlink="http://www.w3.org/1999/xlink" version="1.1"><rect x="0" y="0" width="900" height="600" fill="#001220"></rect><defs><linearGradient id="grad1_0" x1="33.3%" y1="0%" x2="100%" y2="100%"><stop offset="20%" stop-color="#001220" stop-opacity="1"></stop><stop offset="80%" stop-color="#001220" stop-opacity="1"></stop></linearGradient></defs><defs><linearGradient id="grad2_0" x1="0%" y1="0%" x2="66.7%" y2="100%"><stop offset="20%" stop-color="#001220" stop-opacity="1"></stop><stop offset="80%" stop-color="#001220" stop-opacity="1"></stop></linearGradient></defs><g transform="translate(900, 0)"><path d="M0 378.6C-51.4 375.2 -102.9 371.9 -144.9 349.8C-186.9 327.7 -219.4 286.8 -248.9 248.9C-278.4 211 -305 176.1 -326.1 135.1C-347.2 94.1 -362.9 47 -378.6 0L0 0Z" fill="#FBAE3C"></path></g><g transform="translate(0, 600)"><path d="M0 -378.6C37.8 -345.2 75.6 -311.8 123.6 -298.4C171.6 -285 229.8 -291.5 267.7 -267.7C305.6 -243.9 323.1 -189.7 338.1 -140.1C353.2 -90.4 365.9 -45.2 378.6 0L0 0Z" fill="#FBAE3C"></path></g></svg>