<svg id="visual" viewBox="0 0 900 600" width="900" height="600" xmlns="http://www.w3.org/2000/svg" xmlns:xlink="http://www.w3.org/1999/xlink" version="1.1"><rect x="0" y="0" width="900" height="600" fill="#001220"></rect><path d="M0 361L21.5 364C43 367 86 373 128.8 374.5C171.7 376 214.3 373 257.2 370.2C300 367.3 343 364.7 385.8 361.8C428.7 359 471.3 356 514.2 367.7C557 379.3 600 405.7 642.8 411C685.7 416.3 728.3 400.7 771.2 399.8C814 399 857 413 878.5 420L900 427L900 601L878.5 601C857 601 814 601 771.2 601C728.3 601 685.7 601 642.8 601C600 601 557 601 514.2 601C471.3 601 428.7 601 385.8 601C343 601 300 601 257.2 601C214.3 601 171.7 601 128.8 601C86 601 43 601 21.5 601L0 601Z" fill="#fa7268"></path><path d="M0 448L21.5 451.8C43 455.7 86 463.3 128.8 468C171.7 472.7 214.3 474.3 257.2 462.5C300 450.7 343 425.3 385.8 421.8C428.7 418.3 471.3 436.7 514.2 444C557 451.3 600 447.7 642.8 449.3C685.7 451 728.3 458 771.2 461C814 464 857 463 878.5 462.5L900 462L900 601L878.5 601C857 601 814 601 771.2 601C728.3 601 685.7 601 642.8 601C600 601 557 601 514.2 601C471.3 601 428.7 601 385.8 601C343 601 300 601 257.2 601C214.3 601 171.7 601 128.8 601C86 601 43 601 21.5 601L0 601Z" fill="#ef5f67"></path><path d="M0 447L21.5 455.5C43 464 86 481 128.8 484.3C171.7 487.7 214.3 477.3 257.2 473.7C300 470 343 473 385.8 475.5C428.7 478 471.3 480 514.2 482.8C557 485.7 600 489.3 642.8 482.3C685.7 475.3 728.3 457.7 771.2 457.8C814 458 857 476 878.5 485L900 494L900 601L878.5 601C857 601 814 601 771.2 601C728.3 601 685.7 601 642.8 601C600 601 557 601 514.2 601C471.3 601 428.7 601 385.8 601C343 601 300 601 257.2 601C214.3 601 171.7 601 128.8 601C86 601 43 601 21.5 601L0 601Z" fill="#e34c67"></path><path d="M0 533L21.5 524.3C43 515.7 86 498.3 128.8 495.3C171.7 492.3 214.3 503.7 257.2 511.3C300 519 343 523 385.8 525.2C428.7 527.3 471.3 527.7 514.2 527.5C557 527.3 600 526.7 642.8 522.3C685.7 518 728.3 510 771.2 504.2C814 498.3 857 494.7 878.5 492.8L900 491L900 601L878.5 601C857 601 814 601 771.2 601C728.3 601 685.7 601 642.8 601C600 601 557 601 514.2 601C471.3 601 428.7 601 385.8 601C343 601 300 601 257.2 601C214.3 601 171.7 601 128.8 601C86 601 43 601 21.5 601L0 601Z" fill="#d53867"></path><path d="M0 561L21.5 558.7C43 556.3 86 551.7 128.8 548.7C171.7 545.7 214.3 544.3 257.2 544C300 543.7 343 544.3 385.8 545.5C428.7 546.7 471.3 548.3 514.2 552.2C557 556 600 562 642.8 562.2C685.7 562.3 728.3 556.7 771.2 551.2C814 545.7 857 540.3 878.5 537.7L900 535L900 601L878.5 601C857 601 814 601 771.2 601C728.3 601 685.7 601 642.8 601C600 601 557 601 514.2 601C471.3 601 428.7 601 385.8 601C343 601 300 601 257.2 601C214.3 601 171.7 601 128.8 601C86 601 43 601 21.5 601L0 601Z" fill="#c62368"></path></svg>